<svg viewBox="0 0 800 800" xmlns="http://www.w3.org/2000/svg" font-family="'Noto Sans KR','Apple SD Gothic Neo','Malgun Gothic',sans-serif">
  <rect width="800" height="800" rx="28" fill="#ffffff"/>
  <rect x="1.5" y="1.5" width="797" height="797" rx="26.5" fill="none" stroke="#eaeaea" stroke-width="3"/>

  <!-- header -->
  <rect x="60" y="46" width="150" height="34" rx="17" fill="#FDECEA"/>
  <text x="135" y="69" text-anchor="middle" font-size="17" font-weight="700" fill="#E53935">제작기 · 2부</text>
  <text x="60" y="120" font-size="37" font-weight="800" fill="#111111">콘텐츠 3구역</text>
  <text x="60" y="152" font-size="18" fill="#666666">content/ 폴더는 성격이 다른 세 구역으로 나뉩니다</text>

  <!-- content/ root -->
  <rect x="330" y="172" width="140" height="40" rx="10" fill="#111111"/>
  <text x="400" y="198" text-anchor="middle" font-size="18" font-weight="700" fill="#ffffff">content/</text>
  <!-- connectors -->
  <path d="M400 212 L400 232 M160 232 L640 232 M160 232 L160 252 M400 232 L400 252 M640 232 L640 252" stroke="#cccccc" stroke-width="2.5" fill="none"/>

  <!-- ===== Column 1: Blog ===== -->
  <rect x="52" y="256" width="220" height="64" rx="14" fill="#E53935"/>
  <text x="162" y="290" text-anchor="middle" font-size="22" font-weight="800" fill="#ffffff">Blog</text>
  <text x="162" y="310" text-anchor="middle" font-size="13" fill="#ffffff" opacity="0.9">시의성 콘텐츠</text>
  <rect x="52" y="326" width="220" height="428" rx="14" fill="#ffffff" stroke="#eaeaea" stroke-width="2"/>
  <g font-size="15" fill="#333333">
    <text x="70" y="366">매일의 IT뉴스</text><text x="254" y="366" text-anchor="end" font-size="13" fill="#E53935" font-weight="700">자동</text>
    <text x="70" y="426">주간 AI 트렌드</text><text x="254" y="426" text-anchor="end" font-weight="700" fill="#111111">22</text>
    <text x="70" y="486">컨퍼런스 리뷰</text><text x="254" y="486" text-anchor="end" font-weight="700" fill="#111111">34</text>
    <text x="70" y="546">세컨드 브레인</text><text x="254" y="546" text-anchor="end" font-weight="700" fill="#111111">10</text>
    <text x="70" y="606">프리젠테이션</text><text x="254" y="606" text-anchor="end" font-weight="700" fill="#111111">27</text>
    <text x="70" y="666">특이점</text><text x="254" y="666" text-anchor="end" font-weight="700" fill="#111111">8</text>
  </g>
  <line x1="70" y1="386" x2="254" y2="386" stroke="#f0f0f0" stroke-width="1.5"/>
  <line x1="70" y1="446" x2="254" y2="446" stroke="#f0f0f0" stroke-width="1.5"/>
  <line x1="70" y1="506" x2="254" y2="506" stroke="#f0f0f0" stroke-width="1.5"/>
  <line x1="70" y1="566" x2="254" y2="566" stroke="#f0f0f0" stroke-width="1.5"/>
  <line x1="70" y1="626" x2="254" y2="626" stroke="#f0f0f0" stroke-width="1.5"/>

  <!-- ===== Column 2: Class ===== -->
  <rect x="290" y="256" width="220" height="64" rx="14" fill="#334155"/>
  <text x="400" y="290" text-anchor="middle" font-size="22" font-weight="800" fill="#ffffff">Class</text>
  <text x="400" y="310" text-anchor="middle" font-size="13" fill="#ffffff" opacity="0.9">강의·교육 콘텐츠</text>
  <rect x="290" y="326" width="220" height="428" rx="14" fill="#ffffff" stroke="#eaeaea" stroke-width="2"/>
  <g font-size="15" fill="#333333">
    <text x="308" y="366">Affinity</text><text x="492" y="366" text-anchor="end" font-weight="700" fill="#111111">32</text>
    <text x="308" y="426">정적홈페이지</text><text x="492" y="426" text-anchor="end" font-weight="700" fill="#111111">9</text>
    <text x="308" y="486">청출어람</text><text x="492" y="486" text-anchor="end" font-weight="700" fill="#111111">16</text>
    <text x="308" y="546">컴퓨터 기초</text><text x="492" y="546" text-anchor="end" font-weight="700" fill="#111111">12</text>
    <text x="308" y="606">LLM Wiki</text><text x="492" y="606" text-anchor="end" font-weight="700" fill="#111111">8</text>
    <text x="308" y="666">Gemini·NotebookLM</text>
  </g>
  <line x1="308" y1="386" x2="492" y2="386" stroke="#f0f0f0" stroke-width="1.5"/>
  <line x1="308" y1="446" x2="492" y2="446" stroke="#f0f0f0" stroke-width="1.5"/>
  <line x1="308" y1="506" x2="492" y2="506" stroke="#f0f0f0" stroke-width="1.5"/>
  <line x1="308" y1="566" x2="492" y2="566" stroke="#f0f0f0" stroke-width="1.5"/>
  <line x1="308" y1="626" x2="492" y2="626" stroke="#f0f0f0" stroke-width="1.5"/>

  <!-- ===== Column 3: Databank ===== -->
  <rect x="528" y="256" width="220" height="64" rx="14" fill="#6B7280"/>
  <text x="638" y="290" text-anchor="middle" font-size="22" font-weight="800" fill="#ffffff">Databank</text>
  <text x="638" y="310" text-anchor="middle" font-size="13" fill="#ffffff" opacity="0.9">신앙 자료실</text>
  <rect x="528" y="326" width="220" height="428" rx="14" fill="#ffffff" stroke="#eaeaea" stroke-width="2"/>
  <g font-size="15" fill="#333333">
    <text x="546" y="366">오늘의 QT</text><text x="730" y="366" text-anchor="end" font-weight="800" fill="#E53935">367</text>
    <text x="546" y="426">성경 자료</text><text x="730" y="426" text-anchor="end" font-weight="700" fill="#111111">42</text>
    <text x="546" y="486">말씀카드</text><text x="730" y="486" text-anchor="end" font-weight="700" fill="#111111">1</text>
    <text x="546" y="546">자료실</text><text x="730" y="546" text-anchor="end" font-weight="700" fill="#111111">1</text>
  </g>
  <line x1="546" y1="386" x2="730" y2="386" stroke="#f0f0f0" stroke-width="1.5"/>
  <line x1="546" y1="446" x2="730" y2="446" stroke="#f0f0f0" stroke-width="1.5"/>
  <line x1="546" y1="506" x2="730" y2="506" stroke="#f0f0f0" stroke-width="1.5"/>
  <rect x="546" y="588" width="184" height="70" rx="10" fill="#FDECEA"/>
  <text x="638" y="614" text-anchor="middle" font-size="13" fill="#B91C1C" font-weight="700">QT 367개가</text>
  <text x="638" y="636" text-anchor="middle" font-size="13" fill="#B91C1C">홈 팝업의 원천</text>
</svg>
